P3
16 16 255
24 3 3
23 2 2
23 2 2
22 1 1
22 1 1
21 0 0
21 0 0
21 0 0
21 0 0
21 0 0
21 0 0
21 0 0
21 0 0
21 0 0
21 0 0
21 0 0
23 2 2
23 2 2
22 1 1
22 1 1
21 0 0
21 0 0
21 0 0
21 0 0
21 0 0
21 0 0
21 0 0
21 0 0
21 0 0
21 0 0
21 0 0
21 0 0
22 1 1
22 1 1
196 107 8
21 0 0
21 0 0
21 0 0
21 0 0
255 15 251
171 21 141
21 0 0
21 0 0
21 0 0
21 0 0
255 141 255
21 0 0
21 0 0
22 1 1
131 165 5
255 255 154
127 159 8
21 0 0
21 0 0
21 0 0
21 0 0
27 23 43
21 0 0
21 0 0
21 0 0
255 32 255
255 161 255
113 12 125
21 0 0
21 0 0
28 103 118
167 209 29
162 181 53
21 0 0
21 0 0
21 0 0
21 0 0
21 0 0
21 0 0
21 0 0
21 0 0
40 14 57
88 1 88
21 0 0
21 0 0
255 255 238
22 0 0
92 96 0
73 58 0
25 0 1
250 255 224
250 2 223
21 0 0
21 0 0
219 255 6
231 255 11
212 129 3
255 168 0
21 0 0
21 0 0
21 0 0
255 255 232
255 9 230
255 255 229
254 6 227
253 5 226
252 255 225
251 3 224
250 255 223
193 255 8
235 255 38
255 255 76
255 255 104
255 255 42
255 186 6
21 0 0
21 0 0
255 255 235
255 12 233
255 255 231
255 255 229
255 7 228
253 5 226
255 2 255
255 1 255
148 133 253
133 204 1
233 255 48
255 255 101
255 255 187
255 255 107
75 118 0
21 0 0
255 8 255
255 7 255
255 255 255
255 5 255
255 4 255
255 3 255
255 3 255
255 2 255
17 2 68
135 206 0
13 38 0
7 255 255
29 255 255
12 255 255
233 255 66
0 147 147
255 255 255
255 255 255
255 8 255
255 6 255
255 255 255
255 4 255
255 3 255
255 3 255
130 2 125
55 0 0
0 205 217
0 24 28
0 201 209
93 255 255
12 233 232
0 151 151
21 0 0
255 255 255
255 255 255
255 8 255
255 7 255
255 6 255
255 255 255
255 4 255
255 3 255
155 195 153
0 212 225
255 247 248
0 204 212
56 255 255
3 161 162
0 125 126
21 0 0
185 0 177
255 11 255
255 10 255
255 8 255
255 255 255
255 255 255
255 5 255
255 4 255
255 3 255
255 255 255
0 83 83
0 2 2
0 139 144
0 120 127
0 78 85
21 0 0
21 0 0
185 226 177
255 255 255
255 255 255
255 8 255
255 7 255
255 255 255
255 255 255
255 255 255
255 3 255
0 221 239
0 219 230
0 83 101
0 49 74
3 0 0
21 0 0
21 0 0
21 0 0
255 255 255
255 255 255
255 255 255
255 255 255
255 7 255
255 6 255
255 255 255
255 255 255
255 3 255
255 2 255
153 0 153
153 0 153
154 198 155
21 0 0
21 0 0
21 0 0
185 0 177
255 255 255
255 255 255
255 10 255
255 255 255
255 7 255
255 5 255
255 255 255
255 255 255
255 255 255
255 255 255
255 1 255
255 1 255
21 0 0
21 0 0
21 0 0
21 0 0
185 0 177
255 255 255
255 255 255
255 10 255
255 255 255
255 7 255
255 5 255
255 255 255
255 255 255
255 255 255
255 2 255
82 105 82
